<?xml version="1.0" encoding="UTF-8" standalone="no"?>
<!DOCTYPE svg PUBLIC "-//W3C//DTD SVG 1.1//EN" "http://www.w3.org/Graphics/SVG/1.1/DTD/svg11.dtd">
<svg width="100%" height="100%" viewBox="0 0 80 333" version="1.1" xmlns="http://www.w3.org/2000/svg" xmlns:xlink="http://www.w3.org/1999/xlink" xml:space="preserve" xmlns:serif="http://www.serif.com/" style="fill-rule:evenodd;clip-rule:evenodd;stroke-linejoin:round;stroke-miterlimit:2;">
    <g transform="matrix(1,0,0,1,-100,-100)">
        <g transform="matrix(0.956138,-0.292917,0.292917,0.956138,-46.3776,53.4083)">
            <rect x="120" y="110" width="80" height="10" style="fill:rgb(235,235,235);"/>
        </g>
        <g transform="matrix(0.956138,-0.292917,0.292917,0.956138,-46.3776,73.4083)">
            <rect x="120" y="110" width="80" height="10" style="fill:rgb(235,235,235);"/>
        </g>
        <g transform="matrix(0.956138,-0.292917,0.292917,0.956138,-46.3776,93.4083)">
            <rect x="120" y="110" width="80" height="10" style="fill:rgb(235,235,235);"/>
        </g>
        <g transform="matrix(0.956138,-0.292917,0.292917,0.956138,-46.3776,113.408)">
            <rect x="120" y="110" width="80" height="10" style="fill:rgb(235,235,235);"/>
        </g>
        <g transform="matrix(0.956138,-0.292917,0.292917,0.956138,-46.3776,133.408)">
            <rect x="120" y="110" width="80" height="10" style="fill:rgb(235,235,235);"/>
        </g>
        <g transform="matrix(0.956138,-0.292917,0.292917,0.956138,-46.3776,153.408)">
            <rect x="120" y="110" width="80" height="10" style="fill:rgb(235,235,235);"/>
        </g>
        <g transform="matrix(0.956138,-0.292917,0.292917,0.956138,-46.3776,173.408)">
            <rect x="120" y="110" width="80" height="10" style="fill:rgb(235,235,235);"/>
        </g>
        <g transform="matrix(0.956138,-0.292917,0.292917,0.956138,-46.3776,193.408)">
            <rect x="120" y="110" width="80" height="10" style="fill:rgb(235,235,235);"/>
        </g>
        <g transform="matrix(0.956138,-0.292917,0.292917,0.956138,-46.9574,213.408)">
            <rect x="120" y="110" width="80" height="10" style="fill:rgb(235,235,235);"/>
        </g>
        <g transform="matrix(0.956138,-0.292917,0.292917,0.956138,-46.9574,233.408)">
            <rect x="120" y="110" width="80" height="10" style="fill:rgb(235,235,235);"/>
        </g>
        <g transform="matrix(0.956138,-0.292917,0.292917,0.956138,-46.9574,253.408)">
            <rect x="120" y="110" width="80" height="10" style="fill:rgb(235,235,235);"/>
        </g>
        <g transform="matrix(0.956138,-0.292917,0.292917,0.956138,-46.9574,273.408)">
            <rect x="120" y="110" width="80" height="10" style="fill:rgb(235,235,235);"/>
        </g>
        <g transform="matrix(0.956138,-0.292917,0.292917,0.956138,-46.9574,293.408)">
            <rect x="120" y="110" width="80" height="10" style="fill:rgb(235,235,235);"/>
        </g>
        <g transform="matrix(0.956138,-0.292917,0.292917,0.956138,-46.9574,313.408)">
            <rect x="120" y="110" width="80" height="10" style="fill:rgb(235,235,235);"/>
        </g>
        <g transform="matrix(0.956138,-0.292917,0.292917,0.956138,-46.9574,333.408)">
            <rect x="120" y="110" width="80" height="10" style="fill:rgb(235,235,235);"/>
        </g>
        <g transform="matrix(0.956138,-0.292917,0.292917,0.956138,-46.9574,353.408)">
            <rect x="120" y="110" width="80" height="10" style="fill:rgb(235,235,235);"/>
        </g>
    </g>
</svg>
